<?xml version="1.0" encoding="UTF-8"?>
<svg version="1.1" xmlns="http://www.w3.org/2000/svg" width="512" height="512">
<path d="M0 0 C1.45341293 0.00323273 1.45341293 0.00323273 2.93618774 0.00653076 C68.84513607 0.24152449 130.99776511 25.57080224 178.4375 71.3125 C179.08009766 71.92786621 179.72269531 72.54323242 180.38476562 73.17724609 C189.56086539 82.00363353 197.91066554 91.04358004 205.4375 101.3125 C205.86224609 101.88178223 206.28699219 102.45106445 206.72460938 103.03759766 C213.24151959 111.7802151 219.04787157 120.83657062 224.4375 130.3125 C224.80198242 130.94430176 225.16646484 131.57610352 225.54199219 132.22705078 C240.47223018 158.31214001 249.95135054 187.64835114 254.4375 217.3125 C254.61410156 218.43495117 254.79070312 219.55740234 254.97265625 220.71386719 C256.6295586 232.32697743 256.83623513 243.84429945 256.8125 255.5625 C256.81168427 257.08052216 256.81168427 257.08052216 256.81085205 258.62921143 C256.77011956 275.15780572 255.86674222 291.09163999 252.4375 307.3125 C252.21787598 308.35438477 251.99825195 309.39626953 251.77197266 310.46972656 C241.67435215 356.76299311 219.31521242 399.17663721 186.4375 433.3125 C185.80537598 433.97185547 185.17325195 434.63121094 184.52197266 435.31054688 C175.37752521 444.79880305 166.08015991 453.5387044 155.4375 461.3125 C154.28644983 462.17056152 153.13540823 463.02863451 151.984375 463.88671875 C143.79474019 469.92427396 135.29211724 475.30707302 126.4375 480.3125 C125.73028809 480.7146875 125.02307617 481.116875 124.29443359 481.53125 C98.0895882 496.28480272 69.15210882 505.81380207 39.4375 510.3125 C38.31939941 510.48982666 37.20129883 510.66715332 36.04931641 510.84985352 C25.28795702 512.39416151 14.6480899 512.65229671 3.78564453 512.62817383 C0.83718385 512.62502635 -2.11025697 512.64852578 -5.05859375 512.67382812 C-18.44855903 512.71844438 -31.36016733 511.51675057 -44.5625 509.3125 C-45.69945312 509.12437744 -46.83640625 508.93625488 -48.0078125 508.74243164 C-50.60360846 508.27619865 -53.1751671 507.75746002 -55.75 507.1875 C-57.13892456 506.88054199 -57.13892456 506.88054199 -58.5559082 506.56738281 C-103.00659585 496.23155661 -143.74190564 473.92342102 -176.5625 442.3125 C-177.22185547 441.68037598 -177.88121094 441.04825195 -178.56054688 440.39697266 C-188.04880305 431.25252521 -196.7887044 421.95515991 -204.5625 411.3125 C-205.42056152 410.16144983 -206.27863451 409.01040823 -207.13671875 407.859375 C-213.17427396 399.66974019 -218.55707302 391.16711724 -223.5625 382.3125 C-223.9646875 381.60528809 -224.366875 380.89807617 -224.78125 380.16943359 C-237.8066741 357.03404164 -246.55551461 331.86287591 -251.875 305.875 C-252.02235596 305.15610596 -252.16971191 304.43721191 -252.3215332 303.6965332 C-255.29539088 288.05024391 -255.93550362 272.57681954 -255.875 256.6875 C-255.87284485 255.66959381 -255.8706897 254.65168762 -255.86846924 253.60293579 C-255.81879854 238.99386477 -255.56790191 224.66174147 -252.5625 210.3125 C-252.36382324 209.33764648 -252.16514648 208.36279297 -251.96044922 207.35839844 C-241.83982806 158.9765226 -219.9233123 114.98821731 -185.5625 79.3125 C-184.93037598 78.65314453 -184.29825195 77.99378906 -183.64697266 77.31445312 C-174.50252521 67.82619695 -165.20515991 59.0862956 -154.5625 51.3125 C-153.41144983 50.45443848 -152.26040823 49.59636549 -151.109375 48.73828125 C-142.91974019 42.70072604 -134.41711724 37.31792698 -125.5625 32.3125 C-124.85528809 31.9103125 -124.14807617 31.508125 -123.41943359 31.09375 C-97.2720517 16.37254972 -68.25076215 6.67290884 -38.5625 2.3125 C-36.75446899 2.04651001 -36.75446899 2.04651001 -34.90991211 1.77514648 C-23.27388483 0.17985199 -11.73175476 -0.04703114 0 0 Z " fill="#E0CDC3" transform="translate(255.5625,-0.31250000000000006)"/>
<path d="M0 0 C1.16733097 3.50199291 0.78839721 4.41468637 -0.3359375 7.83984375 C-0.81220581 9.29535645 -0.81220581 9.29535645 -1.2980957 10.78027344 C-1.65347412 11.8221582 -2.00885254 12.86404297 -2.375 13.9375 C-2.74004639 15.01418945 -3.10509277 16.09087891 -3.48120117 17.20019531 C-15.4251663 51.66263799 -34.71965164 82.75223398 -60 109 C-60.63212402 109.65935547 -61.26424805 110.31871094 -61.91552734 110.99804688 C-71.05997479 120.48630305 -80.35734009 129.2262044 -91 137 C-92.15105017 137.85806152 -93.30209177 138.71613451 -94.453125 139.57421875 C-102.64275981 145.61177396 -111.14538276 150.99457302 -120 156 C-121.06081787 156.60328125 -121.06081787 156.60328125 -122.14306641 157.21875 C-148.3479118 171.97230272 -177.28539118 181.50130207 -207 186 C-208.11810059 186.17732666 -209.23620117 186.35465332 -210.38818359 186.53735352 C-221.14954298 188.08166151 -231.7894101 188.33979671 -242.65185547 188.31567383 C-245.60031615 188.31252635 -248.54775697 188.33602578 -251.49609375 188.36132812 C-264.88605903 188.40594438 -277.79766733 187.20425057 -291 185 C-292.13695312 184.81187744 -293.27390625 184.62375488 -294.4453125 184.42993164 C-297.04110846 183.96369865 -299.6126671 183.44496002 -302.1875 182.875 C-303.11344971 182.67036133 -304.03939941 182.46572266 -304.9934082 182.25488281 C-349.44409585 171.91905661 -390.17940564 149.61092102 -423 118 C-423.65935547 117.36787598 -424.31871094 116.73575195 -424.99804688 116.08447266 C-434.48630305 106.94002521 -443.2262044 97.64265991 -451 87 C-451.85806152 85.84894983 -452.71613451 84.69790823 -453.57421875 83.546875 C-459.61177396 75.35724019 -464.99457302 66.85461724 -470 58 C-470.4021875 57.29278809 -470.804375 56.58557617 -471.21875 55.85693359 C-493.7333842 15.86707356 -493.7333842 15.86707356 -492 2 C-490.24344218 0.24344218 -487.9290001 0.87043993 -485.58793411 0.85823581 C-484.80282751 0.85925847 -484.01772091 0.86028114 -483.2088232 0.8613348 C-481.96360522 0.85707147 -481.96360522 0.85707147 -480.69323131 0.85272202 C-477.87530672 0.84431409 -475.05742291 0.84310207 -472.23948669 0.84178162 C-470.21334565 0.83722041 -468.18720556 0.83222104 -466.16106659 0.82681805 C-460.56515527 0.81317727 -454.96925006 0.8058015 -449.37332642 0.79939139 C-443.34942219 0.7914134 -437.32553078 0.77770675 -431.30163574 0.76467896 C-420.85545196 0.74287914 -410.40926626 0.72471288 -399.96307182 0.70907402 C-389.00329539 0.69265117 -378.04352561 0.6741761 -367.0837574 0.65294075 C-366.06281611 0.65096434 -366.06281611 0.65096434 -365.02124974 0.648948 C-361.56489658 0.64224621 -358.10854351 0.63550757 -354.65219045 0.62875474 C-330.15037625 0.58095081 -305.64855585 0.53777756 -281.14672852 0.49731445 C-257.33878122 0.45798668 -233.53083906 0.41656954 -209.72290039 0.37231445 C-208.98945046 0.37095192 -208.25600054 0.36958939 -207.50032486 0.36818558 C-200.13493504 0.35450058 -192.76954531 0.34077301 -185.40415563 0.32701423 C-170.3990813 0.29898527 -155.39400645 0.27124054 -140.38893127 0.2436676 C-139.35399462 0.2417653 -139.35399462 0.2417653 -138.29815015 0.23982458 C-92.19877509 0.15512273 -46.09938839 0.07706818 0 0 Z " fill="#DFC0BD" transform="translate(502,324)"/>
<path d="M0 0 C9.9 0 19.8 0 30 0 C30 20.46 30 40.92 30 62 C34.62 62 39.24 62 44 62 C44 90.38 44 118.76 44 148 C48.29 148 52.58 148 57 148 C57 126.22 57 104.44 57 82 C66.24 82 75.48 82 85 82 C86.82238662 83.82238662 86.11997696 86.34756083 86.12442017 88.7724762 C86.12082489 89.60109665 86.11722961 90.4297171 86.11352539 91.28344727 C86.11367142 92.15166107 86.11381744 93.01987488 86.1139679 93.91439819 C86.11326846 96.79842586 86.10547463 99.6823898 86.09765625 102.56640625 C86.09579218 104.56037867 86.09436823 106.55435155 86.09336853 108.54832458 C86.08954248 113.80745702 86.07971145 119.06656203 86.06866455 124.32568359 C86.0584523 129.68782175 86.05387131 135.04996431 86.04882812 140.41210938 C86.03808926 150.94141833 86.0210118 161.47070689 86 172 C88.97 172 91.94 172 95 172 C95 133.06 95 94.12 95 54 C101.93 54 108.86 54 116 54 C116 62.58 116 71.16 116 80 C122.27 80 128.54 80 135 80 C135 80.66 135 81.32 135 82 C135.66 82 136.32 82 137 82 C141.89361507 98.17451187 145.80807524 114.22902485 148 131 C148.08547592 131.65340866 148.17095184 132.30681732 148.25901794 132.98002625 C148.95048933 138.64878583 149.18874942 144.24922207 149.23828125 149.95703125 C149.24789383 150.89043335 149.25750641 151.82383545 149.26741028 152.78552246 C149.29203432 155.7945525 149.30466212 158.80338102 149.3125 161.8125 C149.31578308 162.83701263 149.31906616 163.86152527 149.32244873 164.91708374 C149.34313414 184.87284657 147.33540081 203.49069635 143 223 C-16.06 223 -175.12 223 -339 223 C-339 217 -339 217 -337.57421875 215.13671875 C-336.95160156 214.65847656 -336.32898438 214.18023437 -335.6875 213.6875 C-335.07261719 213.19636719 -334.45773437 212.70523438 -333.82421875 212.19921875 C-330.06736439 209.72950935 -326.73404422 209.88325745 -322.36328125 209.90234375 C-320.41518555 209.90717773 -320.41518555 209.90717773 -318.42773438 209.91210938 C-317.05598892 209.92046469 -315.68424413 209.92892963 -314.3125 209.9375 C-312.92903805 209.94251665 -311.54557437 209.94707927 -310.16210938 209.95117188 C-306.77469605 209.96297471 -303.38736967 209.97943981 -300 210 C-300 206.7 -300 203.4 -300 200 C-283.5 200 -267 200 -250 200 C-250 203.63 -250 207.26 -250 211 C-243.4 211 -236.8 211 -230 211 C-230 207.7 -230 204.4 -230 201 C-210.86 201 -191.72 201 -172 201 C-172 205.62 -172 210.24 -172 215 C-157.48 215 -142.96 215 -128 215 C-128 210.71 -128 206.42 -128 202 C-127 201 -127 201 -124.95874023 200.88647461 C-124.08419189 200.89171143 -123.20964355 200.89694824 -122.30859375 200.90234375 C-121.36435547 200.90556641 -120.42011719 200.90878906 -119.44726562 200.91210938 C-118.45404297 200.92048828 -117.46082031 200.92886719 -116.4375 200.9375 C-115.44041016 200.94201172 -114.44332031 200.94652344 -113.41601562 200.95117188 C-110.94395151 200.96299993 -108.47200482 200.97948151 -106 201 C-106.00523682 199.97527588 -106.01047363 198.95055176 -106.01586914 197.89477539 C-106.03391969 194.10604724 -106.0454322 190.31732291 -106.05493164 186.52856445 C-106.05997174 184.88630536 -106.06680378 183.24405077 -106.07543945 181.60180664 C-106.08751926 179.24624521 -106.09323139 176.89074291 -106.09765625 174.53515625 C-106.10281754 173.79660904 -106.10797882 173.05806183 -106.11329651 172.2971344 C-106.1134925 170.53101912 -106.06194719 168.76502854 -106 167 C-105 166 -105 166 -102.40795898 165.88647461 C-101.28204346 165.89171143 -100.15612793 165.89694824 -98.99609375 165.90234375 C-97.78115234 165.90556641 -96.56621094 165.90878906 -95.31445312 165.91210938 C-94.03505859 165.92048828 -92.75566406 165.92886719 -91.4375 165.9375 C-90.15423828 165.94201172 -88.87097656 165.94652344 -87.54882812 165.95117188 C-84.3658658 165.96300445 -81.18292726 165.98094056 -78 166 C-78 173.59 -78 181.18 -78 189 C-72.72 189 -67.44 189 -62 189 C-62 181.74 -62 174.48 -62 167 C-54.74 167 -47.48 167 -40 167 C-40 146.54 -40 126.08 -40 105 C-30.1 105 -20.2 105 -10 105 C-10 130.41 -10 155.82 -10 182 C-6.7 182 -3.4 182 0 182 C0 121.94 0 61.88 0 0 Z " fill="#957689" transform="translate(363,93)"/>
<path d="M0 0 C0 0.99 0 1.98 0 3 C-32.175 2.505 -32.175 2.505 -65 2 C-65.33 3.98 -65.66 5.96 -66 8 C-67.234375 10.046875 -67.234375 10.046875 -68.75 11.75 C-69.23984375 12.32234375 -69.7296875 12.8946875 -70.234375 13.484375 C-73.89269351 16.62470151 -77.70195078 17.25015778 -82.40922546 17.26501465 C-84.01809631 17.27742439 -84.01809631 17.27742439 -85.6594696 17.29008484 C-86.82589493 17.28910294 -87.99232025 17.28812103 -89.1940918 17.28710938 C-91.04842331 17.29735893 -91.04842331 17.29735893 -92.94021606 17.30781555 C-95.62269658 17.32140002 -98.30491662 17.33144548 -100.98740196 17.33552551 C-105.22685029 17.34224885 -109.46614006 17.36401221 -113.70552063 17.38806152 C-123.46531315 17.44113968 -133.2251544 17.47460034 -142.98503113 17.50782013 C-151.93940299 17.53848762 -160.89370648 17.5732669 -169.84798938 17.62413073 C-174.06485881 17.64751306 -178.28161715 17.66122827 -182.49854505 17.66762543 C-185.73043309 17.67493819 -188.9622479 17.69495077 -192.1940918 17.71289062 C-193.36658981 17.71190872 -194.53908783 17.71092682 -195.74711609 17.70991516 C-197.34329773 17.72232491 -197.34329773 17.72232491 -198.97172546 17.73498535 C-199.89992946 17.73791847 -200.82813345 17.74085159 -201.78446484 17.7438736 C-204.20544343 17.79129377 -204.20544343 17.79129377 -206 20 C-206.33333333 23 -206.33333333 23 -206 26 C-203.16330326 28.83669674 -201.29224869 28.25135285 -197.31884766 28.25537109 C-196.63247726 28.25899155 -195.94610687 28.262612 -195.23893738 28.26634216 C-193.74660193 28.27324221 -192.25424121 28.27574046 -190.76189041 28.27439499 C-188.39971027 28.27343165 -186.03798759 28.28634884 -183.6758728 28.30337524 C-176.95940719 28.3497053 -170.24298701 28.37425408 -163.52636719 28.38085938 C-159.41955062 28.38587253 -155.31320988 28.41011371 -151.20655441 28.44618607 C-149.64129874 28.45599067 -148.07597764 28.45831237 -146.51070023 28.45301437 C-144.31992993 28.44594807 -142.13057768 28.46321475 -139.93994141 28.48583984 C-138.69354889 28.48868988 -137.44715637 28.49153992 -136.16299438 28.49447632 C-132.42954133 29.09117322 -131.24056324 30.0080485 -129 33 C-128.5625 35.5625 -128.5625 35.5625 -129 38 C-130.56271389 40.02126298 -131.45128677 40.89533064 -133.9877634 41.37917423 C-135.13011652 41.38219122 -135.13011652 41.38219122 -136.29554749 41.38526917 C-137.61000603 41.39974091 -137.61000603 41.39974091 -138.95101929 41.414505 C-139.90956818 41.40992783 -140.86811707 41.40535065 -141.85571289 41.40063477 C-142.86730972 41.40761383 -143.87890656 41.4145929 -144.92115784 41.42178345 C-148.27174127 41.44181273 -151.62201819 41.44126017 -154.97265625 41.44140625 C-157.29529152 41.45317063 -159.61791921 41.46653252 -161.9405365 41.48143005 C-168.06030698 41.51767747 -174.18001024 41.53783751 -180.29986572 41.55297852 C-190.10005036 41.57777824 -199.90008643 41.61728749 -209.70013237 41.67487907 C-213.13142696 41.69126902 -216.56258274 41.69499134 -219.99391174 41.69789124 C-222.08717086 41.70766299 -224.18042776 41.71792552 -226.27368164 41.72875977 C-227.23425476 41.72620682 -228.19482788 41.72365387 -229.18450928 41.72102356 C-230.05799515 41.72785156 -230.93148102 41.73467957 -231.83143616 41.74171448 C-232.59262788 41.74334878 -233.3538196 41.74498308 -234.13807774 41.74666691 C-236.24564938 41.84210232 -236.24564938 41.84210232 -238 44 C-238.49416119 45.99992488 -238.49416119 45.99992488 -238.8125 48.25 C-239.81207142 53.13766812 -241.43880791 55.5235982 -245 59 C-247.8388696 60.7087452 -249.92839641 61.25165108 -253.22598267 61.26501465 C-254.06159225 61.27328781 -254.89720184 61.28156097 -255.75813293 61.29008484 C-256.66633286 61.28910294 -257.57453278 61.28812103 -258.51025391 61.28710938 C-259.47322891 61.29394241 -260.43620392 61.30077545 -261.42835999 61.30781555 C-263.51761161 61.32139811 -265.60689644 61.33045489 -267.69618607 61.33552551 C-270.99885951 61.3438059 -274.30125532 61.36430122 -277.60385132 61.38806152 C-285.80357023 61.44450789 -294.00335633 61.47973966 -302.20318604 61.51568604 C-309.13553241 61.54687169 -316.06774345 61.58601028 -322.99998093 61.63594055 C-326.26063558 61.65607447 -329.52118688 61.6643407 -332.78189087 61.67224121 C-334.77077619 61.68520713 -336.75965801 61.69872648 -338.74853516 61.71289062 C-339.66078354 61.71190872 -340.57303192 61.71092682 -341.51292419 61.70991516 C-346.24106457 61.52289439 -346.24106457 61.52289439 -350 64 C-350.4021875 65.670625 -350.4021875 65.670625 -350.8125 67.375 C-352.23126618 71.70597044 -353.11631964 72.6850927 -357 75 C-360.27108657 75.6069311 -363.49949314 75.6080202 -366.81982422 75.61279297 C-367.8041745 75.62944 -368.78852478 75.64608704 -369.80270386 75.66323853 C-373.0535264 75.71139089 -376.30354628 75.72897465 -379.5546875 75.7421875 C-381.81763956 75.76012265 -384.08058919 75.77836639 -386.34353638 75.79690552 C-391.08634197 75.82987661 -395.82886534 75.84528421 -400.57177734 75.85107422 C-406.64455282 75.86184768 -412.71467087 75.93722511 -418.78669548 76.02856255 C-423.46055754 76.08809577 -428.13377896 76.10252099 -432.80798721 76.10452652 C-435.04635937 76.11293177 -437.28473336 76.13780531 -439.52273178 76.17956161 C-457.02503586 76.48014819 -457.02503586 76.48014819 -461.87362671 72.84634399 C-463.71342515 70.26788557 -464.87302546 67.94794776 -466 65 C-466.82802463 63.58234154 -467.67566912 62.17567961 -468.5546875 60.7890625 C-469.33658688 59.40579074 -470.10985351 58.01760843 -470.875 56.625 C-471.29499268 55.86171387 -471.71498535 55.09842773 -472.14770508 54.31201172 C-478.80973476 41.99769161 -484.36622032 29.24788272 -489.0625 16.0625 C-489.3618042 15.22799316 -489.6611084 14.39348633 -489.96948242 13.53369141 C-492.51039509 6.1398713 -492.51039509 6.1398713 -492 2 C-490.24344218 0.24344218 -487.9290001 0.87043993 -485.58793411 0.85823581 C-484.80282751 0.85925847 -484.01772091 0.86028114 -483.2088232 0.8613348 C-481.96360522 0.85707147 -481.96360522 0.85707147 -480.69323131 0.85272202 C-477.87530672 0.84431409 -475.05742291 0.84310207 -472.23948669 0.84178162 C-470.21334565 0.83722041 -468.18720556 0.83222104 -466.16106659 0.82681805 C-460.56515527 0.81317727 -454.96925006 0.8058015 -449.37332642 0.79939139 C-443.34942219 0.7914134 -437.32553078 0.77770675 -431.30163574 0.76467896 C-420.85545196 0.74287914 -410.40926626 0.72471288 -399.96307182 0.70907402 C-389.00329539 0.69265117 -378.04352561 0.6741761 -367.0837574 0.65294075 C-366.06281611 0.65096434 -366.06281611 0.65096434 -365.02124974 0.648948 C-361.56489658 0.64224621 -358.10854351 0.63550757 -354.65219045 0.62875474 C-330.15037625 0.58095081 -305.64855585 0.53777756 -281.14672852 0.49731445 C-257.33878122 0.45798668 -233.53083906 0.41656954 -209.72290039 0.37231445 C-208.98945046 0.37095192 -208.25600054 0.36958939 -207.50032486 0.36818558 C-200.13493504 0.35450058 -192.76954531 0.34077301 -185.40415563 0.32701423 C-170.3990813 0.29898527 -155.39400645 0.27124054 -140.38893127 0.2436676 C-139.35399462 0.2417653 -139.35399462 0.2417653 -138.29815015 0.23982458 C-92.19877509 0.15512273 -46.09938839 0.07706818 0 0 Z " fill="#C0C0D7" transform="translate(502,324)"/>
<path d="M0 0 C12.58405417 0.23980905 24.23480063 6.19235371 33.48168945 14.56689453 C39.51005654 20.93648994 43.33368183 28.07322263 46.13793945 36.31689453 C46.55043945 37.38939453 46.96293945 38.46189453 47.38793945 39.56689453 C48.86724752 46.96343485 48.87371848 54.95719146 47.13793945 62.31689453 C48.14856445 61.86314453 49.15918945 61.40939453 50.20043945 60.94189453 C56.89444506 57.93642263 63.13272345 56.95352663 70.38793945 57.00439453 C71.2284082 57.01003418 72.06887695 57.01567383 72.93481445 57.02148438 C86.44335807 57.28467166 98.3462609 62.05146079 108.2980957 71.35205078 C119.08975599 82.87690243 123.45559551 95.9065366 123.36450195 111.43798828 C122.96245697 118.32127568 121.20716803 124.17843739 118.13793945 130.31689453 C114.50793945 130.31689453 110.87793945 130.31689453 107.13793945 130.31689453 C107.13793945 133.94689453 107.13793945 137.57689453 107.13793945 141.31689453 C100.53793945 141.31689453 93.93793945 141.31689453 87.13793945 141.31689453 C87.13793945 137.68689453 87.13793945 134.05689453 87.13793945 130.31689453 C70.63793945 130.31689453 54.13793945 130.31689453 37.13793945 130.31689453 C37.13793945 133.61689453 37.13793945 136.91689453 37.13793945 140.31689453 C35.86732666 140.33876831 35.86732666 140.33876831 34.57104492 140.36108398 C31.40612011 140.4224063 28.24182441 140.49660805 25.07739258 140.5793457 C23.71194696 140.61244839 22.34636932 140.64052539 20.98071289 140.66333008 C19.00940721 140.69714445 17.03847754 140.75097739 15.06762695 140.80517578 C13.88410645 140.83135986 12.70058594 140.85754395 11.48120117 140.88452148 C7.11130157 141.44966623 3.87261806 143.06074796 0.32543945 145.62939453 C-1.38895408 147.80675302 -1.38895408 147.80675302 -1.86206055 153.31689453 C156.86793945 153.31689453 315.59793945 153.31689453 479.13793945 153.31689453 C478.80793945 155.95689453 478.47793945 158.59689453 478.13793945 161.31689453 C475.00605657 162.88283597 471.66756631 162.45852032 468.22930145 162.45276642 C466.98325149 162.45658035 466.98325149 162.45658035 465.7120288 162.46047133 C462.8982177 162.46785387 460.08445003 162.46806782 457.27062988 162.46838379 C455.24505132 162.47223061 453.21947355 162.4765175 451.19389677 162.48120928 C445.60410449 162.49288946 440.01432039 162.49834288 434.42451835 162.5028441 C428.40536628 162.50877756 422.38622518 162.52044894 416.36708069 162.53147888 C405.93019424 162.54985502 395.49330659 162.56470933 385.05641174 162.57725525 C369.96406816 162.59545756 354.87174022 162.62016533 339.77940911 162.64662915 C332.75372463 162.65893968 325.7280396 162.67093069 318.70235443 162.68283844 C317.99897006 162.68403096 317.29558569 162.68522349 316.57088665 162.68645215 C299.82029176 162.71477692 283.0696924 162.73997201 266.3190918 162.76464844 C265.58595133 162.76572963 264.85281085 162.76681083 264.097454 162.76792479 C252.19928045 162.78546733 240.30110663 162.8028203 228.40293276 162.82014978 C217.25421741 162.83638972 206.10550217 162.85269908 194.95678711 162.86914062 C194.22403484 162.87022009 193.49128256 162.87129956 192.73632567 162.87241174 C176.01538933 162.89706137 159.294455 162.92260183 142.57352448 162.95095062 C141.87126519 162.95214087 141.16900591 162.95333113 140.44546605 162.95455744 C133.43569708 162.96645866 126.42592841 162.97851629 119.41616012 162.99080765 C104.33865175 163.01721079 89.2611461 163.04085675 74.18362536 163.05898105 C63.19459315 163.07223206 52.20557019 163.08893902 41.21654832 163.10907614 C35.25795228 163.11986711 29.29936532 163.1289737 23.34076118 163.1337719 C17.89431151 163.13818274 12.44788918 163.14709971 7.00145251 163.15971512 C5.02302665 163.16347239 3.0445967 163.16551315 1.06616729 163.1657353 C-1.60706183 163.1662711 -4.28020756 163.17284042 -6.95342255 163.18102264 C-7.73533044 163.17971413 -8.51723832 163.17840561 -9.32284039 163.17705745 C-13.22058332 163.11946722 -13.22058332 163.11946722 -16.86206055 164.31689453 C-26.62959863 126.85333872 -30.91146185 85.6340535 -22.86206055 47.31689453 C-22.55606934 45.83068604 -22.55606934 45.83068604 -22.24389648 44.31445312 C-12.88090049 0.02761837 -12.88090049 0.02761837 0 0 Z " fill="#FDF3E9" transform="translate(25.862060546875,162.68310546875)"/>
<path d="M0 0 C21.45 0 42.9 0 65 0 C63.8727695 9.01784399 63.8727695 9.01784399 62.46875 12.92578125 C62.15719971 13.79630127 61.84564941 14.66682129 61.5246582 15.5637207 C61.01745239 16.92436646 61.01745239 16.92436646 60.5 18.3125 C60.14832764 19.2614917 59.79665527 20.2104834 59.43432617 21.18823242 C56.92777195 27.81927283 54.24481462 34.35830157 51.3125 40.8125 C50.77882813 42.03030151 50.77882813 42.03030151 50.234375 43.27270508 C47.64737802 48.76351071 47.64737802 48.76351071 44.23046875 50.01171875 C43.49441406 50.00785156 42.75835937 50.00398438 42 50 C42 50.66 42 51.32 42 52 C35.4 52 28.8 52 22 52 C22 51.34 22 50.68 22 50 C18.37 50 14.74 50 11 50 C11 50.66 11 51.32 11 52 C-17.05 52 -45.1 52 -74 52 C-74 48.04 -74 44.08 -74 40 C-77.3 40 -80.6 40 -84 40 C-84 43.96 -84 47.92 -84 52 C-90.27 52.33 -96.54 52.66 -103 53 C-96.73 53.33 -90.46 53.66 -84 54 C-84 64.23 -84 74.46 -84 85 C-93.9 85 -103.8 85 -114 85 C-114 75.43 -114 65.86 -114 56 C-121.26 56 -128.52 56 -136 56 C-136 50.39 -136 44.78 -136 39 C-133.92025879 38.98018066 -131.84051758 38.96036133 -129.69775391 38.93994141 C-122.83645084 38.87311993 -115.9753012 38.79547949 -109.1141758 38.71247292 C-104.95310442 38.66246601 -100.79205899 38.61613659 -96.63085938 38.578125 C-92.61721133 38.54132738 -88.603778 38.49498297 -84.59031296 38.44193649 C-83.05690644 38.42336304 -81.52345384 38.40826604 -79.98997879 38.39665604 C-77.84677254 38.37984359 -75.70406119 38.35082212 -73.56103516 38.31884766 C-72.33969879 38.30552399 -71.11836243 38.29220032 -69.86001587 38.2784729 C-66.86946433 38.29296656 -66.86946433 38.29296656 -65 36 C-64.65120912 33.2794311 -64.54675326 31.67792278 -66.09387207 29.3638916 C-68.95726607 27.31504747 -71.31874627 27.62099363 -74.81054688 27.61523438 C-75.84273094 27.60717522 -75.84273094 27.60717522 -76.89576721 27.59895325 C-78.38861788 27.58917554 -79.88152539 27.5862311 -81.37440491 27.58930969 C-83.73649275 27.59378361 -86.09782976 27.57980119 -88.45983887 27.56091309 C-93.47321365 27.52411429 -98.48651002 27.51041559 -103.5 27.5 C-109.30926366 27.48793118 -115.11816203 27.46645136 -120.92726135 27.41999817 C-123.25564805 27.40639952 -125.58357629 27.41060366 -127.9119873 27.41540527 C-129.33781524 27.40606655 -130.76363807 27.3958982 -132.18945312 27.38476562 C-133.43505005 27.38271118 -134.68064697 27.38065674 -135.96398926 27.37854004 C-139 27 -139 27 -140.90222168 25.66345215 C-142.62401316 23.0544393 -142.37964099 21.03712794 -142 18 C-140.35523431 15.72341244 -139.46041245 15.07418924 -136.66421032 14.62361908 C-135.73822694 14.62290657 -134.81224356 14.62219406 -133.85820007 14.62145996 C-132.79414948 14.61325729 -131.73009888 14.60505463 -130.63380432 14.59660339 C-129.46647263 14.60275162 -128.29914093 14.60889984 -127.09643555 14.61523438 C-125.86693176 14.6098616 -124.63742798 14.60448883 -123.3706665 14.59895325 C-120.69566345 14.58915455 -118.02127629 14.58474577 -115.3463192 14.58930969 C-111.11430195 14.59611612 -106.88255637 14.5802561 -102.65058899 14.56091309 C-93.66290734 14.52303403 -84.67524922 14.51026026 -75.6875 14.5 C-65.99483151 14.48892573 -56.30228804 14.47353025 -46.60970527 14.42928743 C-42.40558169 14.41095382 -38.20176824 14.40703088 -33.99761426 14.41422272 C-30.76228424 14.41610592 -27.52704203 14.39884325 -24.29174805 14.38476562 C-22.54985954 14.39398796 -22.54985954 14.39398796 -20.77278137 14.40339661 C-15.12634719 14.3602121 -10.82365634 14.29484299 -6 11 C-2.42113825 7.32172543 -1.7119054 5.13571619 0 0 Z " fill="#A4919D" transform="translate(437,326)"/>
<path d="M0 0 C15.54896015 11.51335217 27.57728841 33.43319009 37 50 C37.36448242 50.63180176 37.72896484 51.26360352 38.10449219 51.91455078 C43.36081774 61.09804277 47.64754481 70.57108775 51.625 80.375 C52.07544678 81.47569824 52.52589355 82.57639648 52.98999023 83.71044922 C53.39805908 84.74186035 53.80612793 85.77327148 54.2265625 86.8359375 C54.59346191 87.75938965 54.96036133 88.6828418 55.33837891 89.63427734 C56 92 56 92 55 95 C55 94.34 55 93.68 55 93 C48.73 93 42.46 93 36 93 C36 84.42 36 75.84 36 67 C29.07 67 22.14 67 15 67 C15 105.94 15 144.88 15 185 C12.03 185 9.06 185 6 185 C5.67 155.63 5.34 126.26 5 96 C-8.86 95.505 -8.86 95.505 -23 95 C-23 116.78 -23 138.56 -23 161 C-27.29 161 -31.58 161 -36 161 C-36 132.62 -36 104.24 -36 75 C-40.62 75 -45.24 75 -50 75 C-50 65.43 -50 55.86 -50 46 C-42.42640248 48.27207926 -37.45197888 50.14962551 -31 54 C-31.04640625 52.68386719 -31.0928125 51.36773437 -31.140625 50.01171875 C-31.59679749 31.71955023 -31.59679749 31.71955023 -27 23 C-26.5875 22.16597656 -26.175 21.33195312 -25.75 20.47265625 C-21.62103443 12.85987598 -10.23995122 -3.84749635 0 0 Z " fill="#FEF7F1" transform="translate(443,80)"/>
<path d="M0 0 C6.93023933 -0.10811369 13.73843391 0.19915172 20.640625 0.8046875 C22.12926559 0.92979706 22.12926559 0.92979706 23.64797974 1.05743408 C25.7593373 1.23504241 27.87055161 1.41436092 29.98162842 1.59527588 C35.50517344 2.06800939 41.02988736 2.5265766 46.5546875 2.984375 C47.64065216 3.0744986 48.72661682 3.16462219 49.8454895 3.25747681 C58.3510383 3.9582597 66.85808276 4.57946742 75.375 5.125 C76.52701904 5.19887939 77.67903809 5.27275879 78.8659668 5.34887695 C81.10675622 5.49209074 83.34755991 5.63508161 85.58837891 5.77783203 C91.74837654 6.17897686 97.90559669 6.61665812 104.0625 7.0625 C105.19413574 7.14193848 106.32577148 7.22137695 107.49169922 7.30322266 C108.53729004 7.37976074 109.58288086 7.45629883 110.66015625 7.53515625 C111.57418213 7.600979 112.48820801 7.66680176 113.42993164 7.73461914 C116 8 116 8 118.24780273 8.48632812 C122.26765115 9.23659523 126.29744362 9.42985471 130.375 9.68359375 C131.29474609 9.74402359 132.21449219 9.80445343 133.16210938 9.86671448 C136.10787761 10.06013308 139.05389264 10.2493221 142 10.4375 C154.33659831 11.22598404 166.65029933 12.07934753 178.95056152 13.32432556 C184.15334426 13.84774915 189.34020958 14.22769578 194.5625 14.5 C201.29866354 14.855827 207.97738853 15.48200045 214.68432617 16.19702148 C223.83086226 17.14074636 233.00093087 17.72325585 242.17675781 18.30249023 C243.36366211 18.37927002 244.55056641 18.4560498 245.7734375 18.53515625 C247.35777588 18.63389038 247.35777588 18.63389038 248.97412109 18.73461914 C252.02188429 19.00191933 254.99017524 19.45708323 258 20 C258 20.66 258 21.32 258 22 C234.20917635 33.07822199 209.94648059 40.8602019 184 45 C182.8435498 45.18618896 181.68709961 45.37237793 180.49560547 45.56420898 C169.77789877 47.10322842 159.16609209 47.33969789 148.34814453 47.31567383 C145.39968385 47.31252635 142.45224303 47.33602578 139.50390625 47.36132812 C126.11394097 47.40594438 113.20233267 46.20425057 100 44 C98.86304688 43.81187744 97.72609375 43.62375488 96.5546875 43.42993164 C93.95889154 42.96369865 91.3873329 42.44496002 88.8125 41.875 C87.88655029 41.67036133 86.96060059 41.46572266 86.0065918 41.25488281 C58.57744696 34.87696407 20.88866954 23.22902735 0 3 C0 2.01 0 1.02 0 0 Z " fill="#9BC0E9" transform="translate(111,465)"/>
<path d="M0 0 C10.96730548 6.68351166 17.38401998 15.54164204 21.25 27.75 C22.13395862 32.09713897 22.35772159 36.19328414 22.3125 40.625 C22.30347656 41.77742188 22.29445313 42.92984375 22.28515625 44.1171875 C22.27355469 44.98601562 22.26195312 45.85484375 22.25 46.75 C24.56 46.75 26.87 46.75 29.25 46.75 C29.25 35.2 29.25 23.65 29.25 11.75 C38.82 11.75 48.39 11.75 58.25 11.75 C58.25 12.08 58.25 12.41 58.25 12.75 C44.885 13.245 44.885 13.245 31.25 13.75 C30.92 24.97 30.59 36.19 30.25 47.75 C19.855 48.245 19.855 48.245 9.25 48.75 C8.92 53.04 8.59 57.33 8.25 61.75 C-6.27 61.75 -20.79 61.75 -35.75 61.75 C-35.75 57.13 -35.75 52.51 -35.75 47.75 C-45.32 47.75 -54.89 47.75 -64.75 47.75 C-67.90214761 38.29355717 -65.53795056 26.52989751 -61.30859375 17.76171875 C-48.35528655 -3.96737894 -22.73326851 -11.77466728 0 0 Z " fill="#FE9B4B" transform="translate(226.75,246.25)"/>
<path d="M0 0 C164.01 0 328.02 0 497 0 C496.67 2.31 496.34 4.62 496 7 C492.86811712 8.56594144 489.52962686 8.14162579 486.091362 8.13587189 C484.84531204 8.13968582 484.84531204 8.13968582 483.57408935 8.1435768 C480.76027825 8.15095934 477.94651058 8.15117329 475.13269043 8.15148926 C473.10711187 8.15533608 471.0815341 8.15962297 469.05595732 8.16431475 C463.46616504 8.17599493 457.87638093 8.18144835 452.28657889 8.18594956 C446.26742683 8.19188303 440.24828573 8.20355441 434.22914124 8.21458435 C423.79225478 8.23296049 413.35536713 8.2478148 402.91847229 8.26036072 C387.8261287 8.27856303 372.73380076 8.3032708 357.64146966 8.32973462 C350.61578518 8.34204515 343.59010015 8.35403615 336.56441498 8.36594391 C335.86103061 8.36713643 335.15764624 8.36832896 334.43294719 8.36955762 C317.68235231 8.39788239 300.93175294 8.42307748 284.18115234 8.44775391 C283.44801187 8.4488351 282.7148714 8.4499163 281.95951455 8.45103026 C270.061341 8.4685728 258.16316717 8.48592577 246.26499331 8.50325525 C235.11627796 8.51949519 223.96756271 8.53580455 212.81884766 8.55224609 C212.08609538 8.55332556 211.35334311 8.55440503 210.59838622 8.5555172 C193.87744988 8.58016684 177.15651554 8.6057073 160.43558502 8.63405609 C159.73332574 8.63524634 159.03106646 8.63643659 158.30752659 8.63766291 C151.29775763 8.64956413 144.28798896 8.66162176 137.27822067 8.67391312 C122.20071229 8.70031626 107.12320665 8.72396222 92.0456859 8.74208651 C81.0566537 8.75533753 70.06763073 8.77204449 59.07860887 8.79218161 C53.12001283 8.80297258 47.16142587 8.81207917 41.20282173 8.81687737 C35.75637206 8.82128821 30.30994973 8.83020518 24.86351305 8.84282058 C22.8850872 8.84657786 20.90665725 8.84861861 18.92822784 8.84884077 C16.25499871 8.84937657 13.58185298 8.85594589 10.908638 8.86412811 C10.12673011 8.8628196 9.34482222 8.86151108 8.53922015 8.86016291 C4.64147723 8.80257268 4.64147723 8.80257268 1 10 C0 7 0 7 0 0 Z " fill="#FEFEFE" transform="translate(8,317)"/>
<path d="M0 0 C15.95175605 -0.13862807 31.86311637 0.30001601 47.8046875 0.83984375 C50.46191534 0.92741355 53.11915048 1.01472399 55.77639771 1.10169983 C62.02641568 1.30683226 68.27631827 1.51528017 74.5261842 1.72498852 C81.53099517 1.95986686 88.53592821 2.1909951 95.54087424 2.42180431 C106.56753208 2.78521524 117.59410946 3.15099533 128.62060547 3.51928711 C130.38162267 3.57794779 130.38162267 3.57794779 132.17821598 3.63779354 C137.77393891 3.82438438 143.36961351 4.01219381 148.96516466 4.20387572 C150.98197207 4.27288124 152.99879328 4.34146862 155.01561928 4.40992832 C157.5349683 4.49555338 160.0542922 4.58192281 162.5735836 4.66922665 C176.43690409 5.13858292 190.30479251 5.3444157 204.17407227 5.55224609 C207.57835418 5.604249 210.98252609 5.66123819 214.38671875 5.71875 C215.89935555 5.73911316 215.89935555 5.73911316 217.44255066 5.7598877 C223.09601272 5.85798627 228.65805074 6.21611112 234.28407288 6.76940918 C238.81788796 7.15434445 243.35058134 7.21490033 247.8984375 7.28125 C248.89525543 7.29965942 249.89207336 7.31806885 250.9190979 7.33703613 C254.07101219 7.39512002 257.22297672 7.44819255 260.375 7.5 C286.26136114 7.92691748 286.26136114 7.92691748 297 9 C294.26843976 11.91898174 291.62448184 14.00192698 288.15625 15.98046875 C287.23972656 16.50447266 286.32320313 17.02847656 285.37890625 17.56835938 C284.42886719 18.10267578 283.47882813 18.63699219 282.5 19.1875 C281.54996094 19.73341797 280.59992188 20.27933594 279.62109375 20.84179688 C272.98288304 24.60905148 269.62612978 26.38464649 262 25 C258.82889939 24.69407675 255.65135586 24.49171265 252.47265625 24.28125 C251.56551376 24.21844849 250.65837128 24.15564697 249.72373962 24.09094238 C246.83684047 23.8912156 243.94970883 23.69519566 241.0625 23.5 C238.1788709 23.30468772 235.29532081 23.10846803 232.41197205 22.90905762 C230.62239398 22.78529558 228.83265494 22.66383249 227.04273987 22.54504395 C222.32022101 22.21854796 217.68472166 21.70265486 213 21 C211.31162877 20.83761383 209.62137701 20.69341118 207.9296875 20.5703125 C206.9694165 20.49868896 206.00914551 20.42706543 205.01977539 20.35327148 C203.98199951 20.27794189 202.94422363 20.2026123 201.875 20.125 C193.82408584 19.52614265 185.77591112 18.90628637 177.73046875 18.23828125 C157.41076468 16.52598371 157.41076468 16.52598371 137.05541992 15.34130859 C131.59140045 15.08272462 126.22000765 14.48441057 120.7980957 13.80053711 C105.39141315 11.89507984 89.86546968 11.03742128 74.375 10.125 C52.88350843 8.85468657 31.44417609 6.88970613 10 5 C10 5.66 10 6.32 10 7 C5.54058703 5.59847021 3.20508425 3.33436496 0 0 Z " fill="#FBE4DA" transform="translate(101,460)"/>
<path d="M0 0 C19.63034131 0 19.63034131 0 27.984375 0.3671875 C28.93153381 0.40683624 29.87869263 0.44648499 30.85455322 0.48733521 C32.83052384 0.57124818 34.80641678 0.65701057 36.78222656 0.74462891 C39.73218047 0.87421721 42.6824233 0.99406865 45.6328125 1.11328125 C58.47287355 1.65729731 71.21969443 2.65322614 84 4 C81.37960633 9.5306319 77.0560376 13.28280744 72.75 17.5625 C71.84773682 18.46129883 70.94547363 19.36009766 70.01586914 20.28613281 C64.00323939 26.20201743 57.89549471 31.74477416 51.0859375 36.72265625 C47.98565912 38.94356259 47.98565912 38.94356259 45.2265625 41.43359375 C37.41010755 48.04663555 32.17109013 47.69877718 22 47 C14.74 46.67 7.48 46.34 0 46 C0 30.82 0 15.64 0 0 Z " fill="#AF9295" transform="translate(363,422)"/>
<path d="M0 0 C15.943682 -0.18902303 31.79070348 0.5030007 47.71032715 1.33239746 C50.45349777 1.47375062 53.1969524 1.60908724 55.94042587 1.74441433 C59.24691585 1.90826889 62.55313192 2.07732885 65.859375 2.24609375 C67.07606873 2.3065538 68.29276245 2.36701385 69.54632568 2.42930603 C70.68571594 2.48929276 71.8251062 2.54927948 72.99902344 2.61108398 C73.99206482 2.66215805 74.9851062 2.71323212 76.00823975 2.76585388 C79.35390574 3.02769796 82.67783167 3.52540452 86 4 C86 12.58 86 21.16 86 30 C76.43 30 66.86 30 57 30 C57 26.37 57 22.74 57 19 C52.71 19 48.42 19 44 19 C44 22.63 44 26.26 44 30 C29.48 30 14.96 30 0 30 C0 20.1 0 10.2 0 0 Z " fill="#A8929B" transform="translate(363,381)"/>
<path d="M0 0 C20.46 0 40.92 0 62 0 C62 0.33 62 0.66 62 1 C58.7 1 55.4 1 52 1 C52 4.96 52 8.92 52 13 C45.73 13.33 39.46 13.66 33 14 C39.27 14.33 45.54 14.66 52 15 C52 25.23 52 35.46 52 46 C42.1 46 32.2 46 22 46 C22 36.43 22 26.86 22 17 C14.74 17 7.48 17 0 17 C0 11.39 0 5.78 0 0 Z " fill="#C79484" transform="translate(301,365)"/>
<path d="M0 0 C3.3 0 6.6 0 10 0 C10 3.96 10 7.92 10 12 C38.05 12 66.1 12 95 12 C95 11.34 95 10.68 95 10 C98.63 10 102.26 10 106 10 C106 10.66 106 11.32 106 12 C112.6 12 119.2 12 126 12 C126 11.34 126 10.68 126 10 C127.98 10.495 127.98 10.495 130 11 C127.23584408 15.88619598 124.40742582 20.72572137 121.49707031 25.52636719 C120.50249742 27.16971562 119.5173713 28.81882016 118.54199219 30.47363281 C117.11375971 32.86743091 115.62914668 35.21584078 114.125 37.5625 C113.6928418 38.3062085 113.26068359 39.04991699 112.81542969 39.81616211 C111.4453125 41.87890625 111.4453125 41.87890625 108 45 C104.04 45 100.08 45 96 45 C96 36.42 96 27.84 96 19 C92.18824219 18.86722656 88.37648438 18.73445313 84.44921875 18.59765625 C68.89542809 18.03408793 53.35521025 17.2468257 37.8125 16.4375 C35.09311935 16.29712909 32.37370935 16.15733098 29.65429688 16.01757812 C23.10273935 15.680732 16.55138241 15.34030376 10 15 C10 24.9 10 34.8 10 45 C6.7 45 3.4 45 0 45 C0 34.77 0 24.54 0 14 C-2.825625 14.020625 -5.65125 14.04125 -8.5625 14.0625 C-17.0857742 14.09281878 -25.50696982 13.71092629 -34 13 C-34 12.67 -34 12.34 -34 12 C-22.78 12 -11.56 12 0 12 C0 8.04 0 4.08 0 0 Z " fill="#F8DED3" transform="translate(353,366)"/>
<path d="M0 0 C21.85641892 0 21.85641892 0 30.6875 1 C32.06131836 1.14308594 32.06131836 1.14308594 33.46289062 1.2890625 C35.64285677 1.51733121 37.82160076 1.75723312 40 2 C37.59851004 7.5638714 32.98359532 11.35443624 28.75 15.5625 C27.8528125 16.45694824 26.955625 17.35139648 26.03125 18.27294922 C18.1508579 26.0309138 9.9728288 34.0135856 0 39 C0 26.13 0 13.26 0 0 Z " fill="#CEBDC4" transform="translate(407,424)"/>
<path d="M0 0 C10.10948884 -0.08219097 19.93103696 0.07411834 30 1 C30 8.59 30 16.18 30 24 C20.1 24 10.2 24 0 24 C0 16.08 0 8.16 0 0 Z " fill="#C49486" transform="translate(323,420)"/>
<path d="M0 0 C12.43205487 24.86410974 11.69145107 56.84192954 11 84 C7.37 84 3.74 84 0 84 C0 56.28 0 28.56 0 0 Z " fill="#F6D5B6" transform="translate(501,181)"/>
<path d="M0 0 C19.28571429 -0.14285714 19.28571429 -0.14285714 27 1 C24.54229569 6.78234705 19.56427949 10.76364257 15.1875 15.125 C14.28451172 16.04410156 13.38152344 16.96320313 12.45117188 17.91015625 C11.57396484 18.78800781 10.69675781 19.66585938 9.79296875 20.5703125 C8.9939917 21.37227051 8.19501465 22.17422852 7.37182617 23.00048828 C5 25 5 25 0 27 C0 18.09 0 9.18 0 0 Z " fill="#A294A4" transform="translate(420,425)"/>
<path d="M0 0 C0.84755859 0.00966797 1.69511719 0.01933594 2.56835938 0.02929688 C3.44943359 0.05443359 4.33050781 0.07957031 5.23828125 0.10546875 C6.13095703 0.11900391 7.02363281 0.13253906 7.94335938 0.14648438 C10.14609108 0.18182232 12.34851245 0.23562906 14.55078125 0.29296875 C14.55078125 6.23296875 14.55078125 12.17296875 14.55078125 18.29296875 C5.31078125 18.29296875 -3.92921875 18.29296875 -13.44921875 18.29296875 C-12.12921875 16.31296875 -10.80921875 14.33296875 -9.44921875 12.29296875 C-8.68367024 9.90263057 -8.68367024 9.90263057 -8.38671875 7.60546875 C-7.56105701 2.23402889 -5.59436736 -0.11263827 0 0 Z " fill="#E6976E" transform="translate(270.44921875,364.70703125)"/>
<path d="M0 0 C44.88 0 89.76 0 136 0 C135.67 1.32 135.34 2.64 135 4 C105.43396239 4.22168879 75.94625226 3.66482183 46.39971924 2.60931396 C41.13450482 2.42288034 35.8689977 2.24509094 30.60351562 2.06640625 C20.40205353 1.71902709 10.20092864 1.36268586 0 1 C0 0.67 0 0.34 0 0 Z " fill="#EFD8D1" transform="translate(361,344)"/>
<path d="M0 0 C-0.67804688 0.40089844 -1.35609375 0.80179687 -2.0546875 1.21484375 C-12.03742813 7.31233491 -20.45150992 14.23050464 -27 24 C-30.57777053 23.71929047 -32.49097076 23.47050811 -35.16796875 20.99609375 C-36.16763672 19.72958984 -36.16763672 19.72958984 -37.1875 18.4375 C-43.55990994 10.92600835 -51.35096329 5.61281958 -60 1 C-56.6335822 -0.12213927 -56.05465499 0.08213639 -52.8671875 1.2578125 C-51.66316284 1.69855103 -51.66316284 1.69855103 -50.43481445 2.14819336 C-49.59007568 2.47053955 -48.74533691 2.79288574 -47.875 3.125 C-47.0193042 3.4454126 -46.1636084 3.7658252 -45.28198242 4.09594727 C-39.54306712 6.28957825 -34.22641797 8.74581522 -29 12 C-28.37996094 11.56429687 -27.75992188 11.12859375 -27.12109375 10.6796875 C-21.6241992 6.98308593 -16.1248709 3.97973496 -10 1.5 C-9.35345459 1.23300293 -8.70690918 0.96600586 -8.04077148 0.69091797 C-3.37804623 -1.12601541 -3.37804623 -1.12601541 0 0 Z " fill="#FCFCFC" transform="translate(214,68)"/>
<path d="M0 0 C-0.67804688 0.40089844 -1.35609375 0.80179687 -2.0546875 1.21484375 C-12.03742813 7.31233491 -20.45150992 14.23050464 -27 24 C-30.5444409 23.71725258 -32.47837256 23.48150226 -35.1328125 21.03125 C-36.11894531 19.77828125 -36.11894531 19.77828125 -37.125 18.5 C-43.50627691 10.97419626 -51.07873613 5.21612322 -60 1 C-56.62906303 -0.12364566 -56.03095366 0.0882076 -52.83203125 1.2578125 C-52.02056641 1.55429688 -51.20910156 1.85078125 -50.37304688 2.15625 C-49.52806641 2.4759375 -48.68308594 2.795625 -47.8125 3.125 C-46.98685547 3.42148438 -46.16121094 3.71796875 -45.31054688 4.0234375 C-40.30013376 5.88704269 -36.09144005 8.03973685 -31.7956543 11.23779297 C-29.95580787 12.26233381 -29.95580787 12.26233381 -27.87353516 11.20068359 C-26.12271927 10.07864652 -24.39930911 8.93055801 -22.6875 7.75 C-18.70331934 5.2297039 -14.53913088 3.40168596 -10.1875 1.625 C-9.19979614 1.21266113 -9.19979614 1.21266113 -8.19213867 0.79199219 C-3.36509573 -1.12169858 -3.36509573 -1.12169858 0 0 Z " fill="#FDFCFC" transform="translate(302,106)"/>
<path d="M0 0 C3.3 0 6.6 0 10 0 C10 9.9 10 19.8 10 30 C6.7 30 3.4 30 0 30 C0 20.1 0 10.2 0 0 Z " fill="#F4BEAA" transform="translate(353,381)"/>
<path d="M0 0 C6.27 0 12.54 0 19 0 C15.90252101 6.19495797 12.8757094 11.42368878 8.9375 17 C8.14375977 18.16208984 8.14375977 18.16208984 7.33398438 19.34765625 C6.82029297 20.07855469 6.30660156 20.80945313 5.77734375 21.5625 C5.08499634 22.55443359 5.08499634 22.55443359 4.37866211 23.56640625 C3.92370361 24.03949219 3.46874512 24.51257813 3 25 C2.01 25 1.02 25 0 25 C0 16.75 0 8.5 0 0 Z " fill="#9D95A9" transform="translate(458,386)"/>
<path d="M0 0 C5.61 0 11.22 0 17 0 C17 0.33 17 0.66 17 1 C14.36 1 11.72 1 9 1 C9 9.25 9 17.5 9 26 C6.03 26 3.06 26 0 26 C0 17.42 0 8.84 0 0 Z " fill="#F3BEAB" transform="translate(449,385)"/>
<path d="M0 0 C4.29 0 8.58 0 13 0 C13 3.63 13 7.26 13 11 C8.71 11 4.42 11 0 11 C0 7.37 0 3.74 0 0 Z " fill="#F2BAA8" transform="translate(407,400)"/>
<path d="M0 0 C3.3 0 6.6 0 10 0 C10 3.96 10 7.92 10 12 C6.7 12 3.4 12 0 12 C0 8.04 0 4.08 0 0 Z " fill="#F9CAAF" transform="translate(353,366)"/>
<path d="M0 0 C1.32 0.33 2.64 0.66 4 1 C3.67 1.66 3.34 2.32 3 3 C-4.59 3 -12.18 3 -20 3 C-20 2.67 -20 2.34 -20 2 C-13.4 2 -6.8 2 0 2 C0 1.34 0 0.68 0 0 Z " fill="#E2D1C9" transform="translate(479,376)"/>
<path d="M0 0 C1.98 0 3.96 0 6 0 C6 0.66 6 1.32 6 2 C4.02 2.66 2.04 3.32 0 4 C0 2.68 0 1.36 0 0 Z " fill="#BBA19F" transform="translate(363,485)"/>
</svg>
